<?xml version="1.0" encoding="UTF-8" standalone="no"?>
<svg
   xmlns:dc="http://purl.org/dc/elements/1.1/"
   xmlns:cc="http://creativecommons.org/ns#"
   xmlns:rdf="http://www.w3.org/1999/02/22-rdf-syntax-ns#"
   xmlns:svg="http://www.w3.org/2000/svg"
   xmlns="http://www.w3.org/2000/svg"
   xmlns:xlink="http://www.w3.org/1999/xlink"
   xmlns:sodipodi="http://sodipodi.sourceforge.net/DTD/sodipodi-0.dtd"
   xmlns:inkscape="http://www.inkscape.org/namespaces/inkscape"
   height="64"
   version="1.0"
   width="64"
   id="svg2"
   inkscape:version="0.48.2 r9819"
   sodipodi:docname="ic_app_icon.svg">
  <metadata
     id="metadata64">
    <rdf:RDF>
      <cc:Work
         rdf:about="">
        <dc:format>image/svg+xml</dc:format>
        <dc:type
           rdf:resource="http://purl.org/dc/dcmitype/StillImage" />
      </cc:Work>
    </rdf:RDF>
  </metadata>
  <defs
     id="defs62" />
  <sodipodi:namedview
     pagecolor="#ffffff"
     bordercolor="#666666"
     borderopacity="1"
     objecttolerance="10"
     gridtolerance="10"
     guidetolerance="10"
     inkscape:pageopacity="0"
     inkscape:pageshadow="2"
     inkscape:window-width="1551"
     inkscape:window-height="1028"
     id="namedview60"
     showgrid="false"
     inkscape:zoom="5.5340203"
     inkscape:cx="-54.550585"
     inkscape:cy="36.903183"
     inkscape:window-x="121"
     inkscape:window-y="-8"
     inkscape:window-maximized="1"
     inkscape:current-layer="layer4" />
  <g
     style="display:none"
     id="g4">
    <rect
       height="62.75"
       style="fill:#808080"
       width="62.375"
       x="1"
       y="0.62500018"
       id="rect6" />
  </g>
  <g
     style="opacity:0.13194442;display:none"
     id="g8">
    <image
       sodipodi:absref="C:\Users\Andrei\Dropbox\projects\eclipse\TrentoBusDroid\res\drawable\_pre_production\icon.png"
       xlink:href="icon.png"
       id="image10"
       y="0.18181957"
       x="3.4679067e-06"
       width="63.636364"
       height="63.636364" />
    <path
       d="M 4.2545455,32.220739 L 4.2545455,24.311648 L 5.2545455,24.311648 L 6.2545455,24.311648 L 6.2545455,21.311648 L 6.2545455,18.311648 L 7.2545455,18.311648 L 8.2545455,18.311648 L 8.2545455,16.311648 L 8.2545455,14.311648 L 9.2545455,14.311648 L 10.254545,14.311648 L 10.254545,13.311648 L 10.254545,12.311648 L 11.254545,12.311648 L 12.254545,12.311648 L 12.254545,11.311648 L 12.254545,10.311648 L 15.254545,10.311648 L 18.254545,10.311648 L 18.254545,11.311648 L 18.254545,12.311648 L 19.163636,12.311648 L 20.072727,12.311648 L 20.072727,18.311648 L 20.072727,24.311648 L 25.163636,24.311648 L 30.254545,24.311648 L 30.254545,18.311648 L 30.254545,12.311648 L 31.163636,12.311648 L 32.072727,12.311648 L 32.072727,18.311648 L 32.072727,24.311648 L 38.072727,24.311648 L 44.072727,24.311648 L 44.072727,17.311648 L 44.072727,10.311648 L 51.981818,10.311648 L 59.890909,10.311648 L 59.890909,25.220739 L 59.890909,40.12983 L 55.981818,40.12983 L 52.072727,40.12983 L 52.072727,39.12983 L 52.072727,38.12983 L 51.072727,38.12983 L 50.072727,38.12983 L 50.072727,37.12983 L 50.072727,36.12983 L 47.072727,36.12983 L 44.072727,36.12983 L 44.072727,37.12983 L 44.072727,38.12983 L 43.072727,38.12983 L 42.072727,38.12983 L 42.072727,39.12983 L 42.072727,40.12983 L 32.163636,40.12983 L 22.254545,40.12983 L 22.254545,39.12983 L 22.254545,38.12983 L 21.254545,38.12983 L 20.254545,38.12983 L 20.254545,37.12983 L 20.254545,36.12983 L 17.254545,36.12983 L 14.254545,36.12983 L 14.254545,37.12983 L 14.254545,38.12983 L 13.254545,38.12983 L 12.254545,38.12983 L 12.254545,39.12983 L 12.254545,40.12983 L 8.2545455,40.12983 L 4.2545455,40.12983 L 4.2545455,32.220739 z M 18.254545,18.311648 L 18.254545,12.311648 L 16.254545,12.311648 L 14.254545,12.311648 L 14.254545,13.311648 L 14.254545,14.311648 L 13.254545,14.311648 L 12.254545,14.311648 L 12.254545,15.220739 L 12.254545,16.12983 L 11.254545,16.12983 L 10.254545,16.12983 L 10.254545,18.12983 L 10.254545,20.12983 L 9.2545455,20.12983 L 8.2545455,20.12983 L 8.2545455,22.220739 L 8.2545455,24.311648 L 13.254545,24.311648 L 18.254545,24.311648 L 18.254545,18.311648 z M 58.072727,18.311648 L 58.072727,12.311648 L 52.072727,12.311648 L 46.072727,12.311648 L 46.072727,18.311648 L 46.072727,24.311648 L 52.072727,24.311648 L 58.072727,24.311648 L 58.072727,18.311648 z"
       style="fill:#ffff00"
       id="path12" />
    <path
       d="M 18.254545,11.327273 L 18.254545,10.327273 L 31.163636,10.327273 L 44.072727,10.327273 L 44.072727,11.327273 L 44.072727,12.327273 L 31.163636,12.327273 L 18.254545,12.327273 L 18.254545,11.327273 z"
       style="fill:#ffff00"
       id="path14" />
    <path
       d="M 14.254545,47.145455 L 14.254545,46.145455 L 13.254545,46.145455 L 12.254545,46.145455 L 12.254545,43.145455 L 12.254545,40.145455 L 13.254545,40.145455 L 14.254545,40.145455 L 14.254545,39.145455 L 14.254545,38.145455 L 17.163636,38.145455 L 20.072727,38.145455 L 20.072727,39.145455 L 20.072727,40.145455 L 21.072727,40.145455 L 22.072727,40.145455 L 22.072727,43.145455 L 22.072727,46.145455 L 21.072727,46.145455 L 20.072727,46.145455 L 20.072727,47.145455 L 20.072727,48.145455 L 17.163636,48.145455 L 14.254545,48.145455 L 14.254545,47.145455 z"
       style="fill:#ffff00"
       id="path16" />
    <path
       d="M 44.072727,47.145455 L 44.072727,46.145455 L 43.072727,46.145455 L 42.072727,46.145455 L 42.072727,43.145455 L 42.072727,40.145455 L 43.072727,40.145455 L 44.072727,40.145455 L 44.072727,39.145455 L 44.072727,38.145455 L 47.072727,38.145455 L 50.072727,38.145455 L 50.072727,39.145455 L 50.072727,40.145455 L 51.072727,40.145455 L 52.072727,40.145455 L 52.072727,43.145455 L 52.072727,46.145455 L 51.072727,46.145455 L 50.072727,46.145455 L 50.072727,47.145455 L 50.072727,48.145455 L 47.072727,48.145455 L 44.072727,48.145455 L 44.072727,47.145455 z"
       style="fill:#ffff00"
       id="path18" />
    <path
       d="M 6.2545455,52.145455 L 6.2545455,50.145455 L 32.072727,50.145455 L 57.890909,50.145455 L 57.890909,52.145455 L 57.890909,54.145455 L 32.072727,54.145455 L 6.2545455,54.145455 L 6.2545455,52.145455 z"
       style="fill:#ffff00"
       id="path20" />
    <path
       d="M 53.583232,39.078629 L 52.098857,39.060689 L 52.098857,38.593067 L 52.098857,38.12545 L 51.098857,38.12545 L 50.098857,38.12545 L 50.098857,38.5942 L 50.098857,39.06295 L 47.098857,39.06295 L 44.098857,39.06295 L 44.098857,38.5942 L 44.098857,38.12545 L 43.098857,38.12545 L 42.098857,38.12545 L 42.098857,38.604458 L 42.098857,39.083466 L 38.0573,39.041958 C 35.834444,39.019129 31.376629,39.00045 28.151048,39.00045 L 22.286357,39.00045 L 22.286357,38.56295 L 22.286357,38.12545 L 21.270732,38.125458 L 20.255107,38.125465 L 20.277282,37.125458 L 20.299452,36.12545 L 17.292907,36.12545 L 14.286357,36.12545 L 14.285502,36.984825 C 14.284256,38.241005 14.389382,38.12545 13.247817,38.12545 L 12.286357,38.12545 L 12.286357,38.5317 L 12.286357,38.93795 L 9.1301067,38.93795 L 5.9738567,38.93795 L 5.9738567,32.09607 L 5.9738567,25.254185 L 7.1144817,23.229992 L 8.2551067,21.205795 L 8.2729554,21.750305 L 8.2908085,22.294815 L 7.4135804,23.844704 C 6.9311079,24.697142 6.5363567,25.41841 6.5363567,25.447521 C 6.5363567,25.476632 9.5316692,25.50045 13.192607,25.50045 L 19.848857,25.50045 L 19.848857,18.75045 L 19.848857,12.00045 L 16.978846,12.00045 L 14.10884,12.00045 L 13.456115,13.141075 L 12.803393,14.2817 L 12.544875,14.300919 L 12.286357,14.320137 L 12.286357,14.756989 C 12.286357,15.15067 12.261094,15.239868 12.030707,15.659644 L 11.775057,16.12545 L 11.463,16.12545 C 11.28478,16.12545 11.159875,16.098924 11.171774,16.063601 C 11.18323,16.029582 11.769169,14.975747 12.473857,13.721741 L 13.755107,11.441729 L 36.145732,11.43984 L 58.536357,11.43795 L 58.536357,25.2817 L 58.536357,39.12545 L 56.801982,39.111012 C 55.848075,39.10307 54.399638,39.088499 53.583232,39.07863 L 53.583232,39.078629 z M 50.059794,37.930138 C 50.081282,37.822716 50.098857,37.372716 50.098857,36.930138 L 50.098857,36.12545 L 47.098857,36.12545 L 44.098857,36.12545 L 44.098857,37.12545 L 44.098857,38.12545 L 47.059794,38.12545 L 50.020732,38.12545 L 50.059794,37.930138 z M 32.348857,24.9067 L 32.348857,24.31295 L 32.786357,24.31295 L 33.223857,24.31295 L 33.223857,24.9067 L 33.223857,25.50045 L 39.130107,25.50045 L 45.036357,25.50045 L 45.036357,18.7817 L 45.036357,12.06295 L 39.130107,12.06295 L 33.223857,12.06295 L 33.223857,12.2192 C 33.223857,12.370986 33.211357,12.37545 32.786357,12.37545 L 32.348857,12.37545 L 32.348857,12.18763 L 32.348857,11.999814 L 26.458232,12.015755 L 20.567607,12.0317 L 20.547831,12.203575 C 20.530538,12.353864 20.501102,12.37545 20.313455,12.37545 L 20.098857,12.37545 L 20.098857,18.3442 L 20.098857,24.31295 L 20.317607,24.31295 L 20.536357,24.31295 L 20.536357,24.9067 L 20.536357,25.50045 L 26.442607,25.50045 L 32.348857,25.50045 L 32.348857,24.9067 z M 57.723857,24.9067 L 57.723857,24.31295 L 57.911357,24.31295 L 58.098857,24.31295 L 58.098857,18.31295 L 58.098857,12.31295 L 57.911357,12.31295 C 57.765525,12.31295 57.723857,12.285173 57.723857,12.18795 C 57.723857,12.063832 57.682188,12.06295 51.817607,12.06295 L 45.911357,12.06295 L 45.911357,18.7817 L 45.911357,25.50045 L 51.817607,25.50045 L 57.723857,25.50045 L 57.723857,24.9067 z"
       style="fill:#000000"
       id="path22" />
    <path
       d="M 52.708232,39.078671 L 51.598857,39.060067 L 51.598857,38.592759 L 51.598857,38.12545 L 50.848857,38.12545 L 50.098857,38.12545 L 50.098857,38.5942 L 50.098857,39.06295 L 46.880107,39.06295 L 43.661357,39.06295 L 43.661357,38.5942 L 43.661357,38.12545 L 42.880107,38.12545 L 42.098857,38.12545 L 42.098857,38.604481 L 42.098857,39.083512 L 37.364482,39.042027 C 34.760575,39.019209 30.303995,39.00052 27.46097,39.000496 L 22.291835,39.00045 L 22.270262,38.547325 L 22.248694,38.0942 L 22.236277,38.547325 L 22.223857,39.00045 L 22.036357,39.00045 L 21.848857,39.00045 L 21.848857,38.56295 L 21.848857,38.12545 L 21.067607,38.12545 C 20.328024,38.12545 20.286357,38.118784 20.286357,38.00045 C 20.286357,37.89926 20.24469,37.87545 20.067607,37.87545 L 19.848857,37.87545 L 19.848857,37.00045 L 19.848857,36.12545 L 17.067607,36.12545 L 14.286357,36.12545 L 14.286357,37.00045 C 14.286357,37.792117 14.274452,37.887355 14.161357,38.00045 C 14.048275,38.113532 14.046786,38.125438 14.145732,38.125319 C 14.240843,38.125204 14.252374,38.178184 14.234149,38.531569 C 14.214439,38.913759 14.204207,38.93795 14.062274,38.93795 C 13.918196,38.93795 13.911357,38.919539 13.911357,38.5317 L 13.911357,38.12545 L 13.098857,38.12545 L 12.286357,38.12545 L 12.286357,38.5317 L 12.286357,38.93795 L 9.1301067,38.93795 L 5.9738567,38.93795 L 5.9738567,32.086567 L 5.9738567,25.235184 L 7.0819879,23.272854 C 7.8938854,21.835104 8.2018073,21.340084 8.2338448,21.42111 C 8.2578954,21.481937 8.2795479,21.707101 8.2819635,21.921479 C 8.286336,22.309323 8.2821842,22.318639 7.446371,23.797183 C 6.9843779,24.61444 6.5875254,25.332255 6.5644748,25.392325 C 6.5247423,25.495864 6.8688204,25.501456 13.18571,25.499889 L 19.848857,25.498234 L 19.848857,18.749344 L 19.848857,12.00045 L 16.981559,12.00045 L 14.114264,12.00045 L 13.46456,13.141075 L 12.814856,14.2817 L 12.550609,14.300919 L 12.286357,14.320137 L 12.275939,14.691544 C 12.259893,15.263706 12.258379,15.277622 12.204959,15.3442 C 12.177377,15.378575 12.074657,15.561388 11.976692,15.75045 C 11.814668,16.063145 11.777667,16.095989 11.567144,16.11399 C 11.181583,16.146958 11.148175,16.105674 11.313484,15.800532 C 11.712203,15.064546 12.016629,14.518013 12.848857,13.044095 L 13.755107,11.439082 L 36.176982,11.438517 L 58.598857,11.43795 L 58.598857,25.2817 L 58.598857,39.12545 L 56.208232,39.111363 C 54.893388,39.103615 53.318388,39.088903 52.708232,39.07867 L 52.708232,39.078671 z M 50.036357,38.00045 C 50.036357,37.903228 49.994688,37.87545 49.848857,37.87545 L 49.661357,37.87545 L 49.661357,37.00045 L 49.661357,36.12545 L 46.880107,36.12545 L 44.098857,36.12545 L 44.098857,37.0317 L 44.098857,37.93795 L 46.848857,37.93795 C 49.251632,37.93795 49.598857,37.949787 49.598857,38.0317 C 49.598857,38.097177 49.664832,38.12545 49.817607,38.12545 C 49.994688,38.12545 50.036357,38.101641 50.036357,38.00045 z M 20.268965,36.295933 C 20.255158,36.184979 20.244088,36.291075 20.244365,36.5317 C 20.244644,36.772325 20.255939,36.863104 20.269469,36.733432 C 20.282999,36.603757 20.282772,36.406884 20.268965,36.295932 L 20.268965,36.295933 z M 32.348857,24.75045 L 32.348857,24.00045 L 32.786357,24.00045 L 33.223857,24.00045 L 33.223857,24.75045 L 33.223857,25.50045 L 39.130107,25.50045 L 45.036357,25.50045 L 45.036357,18.7817 L 45.036357,12.06295 L 39.134457,12.06295 L 33.23255,12.06295 L 33.21258,12.203575 C 33.194432,12.33135 33.154057,12.345889 32.770732,12.362681 L 32.348857,12.381161 L 32.348857,12.190808 L 32.348857,12.00045 L 30.202906,12.00045 C 29.022634,12.00045 26.364822,12.019124 24.296657,12.041945 C 20.790411,12.080636 20.536357,12.090742 20.536357,12.191509 C 20.536357,12.306047 20.416519,12.37545 20.218745,12.37545 C 20.10142,12.37545 20.098857,12.499727 20.098857,18.18795 L 20.098857,24.00045 L 20.317607,24.00045 L 20.536357,24.00045 L 20.536357,24.75045 L 20.536357,25.50045 L 26.442607,25.50045 L 32.348857,25.50045 L 32.348857,24.75045 z M 57.738919,18.886529 C 57.747819,15.248869 57.746013,12.225431 57.7349,12.167777 C 57.71615,12.070556 57.2864,12.06295 51.813025,12.06295 L 45.911357,12.06295 L 45.911357,18.7817 L 45.911357,25.50045 L 51.817044,25.50045 L 57.722725,25.50045 L 57.738919,18.886529 z"
       style="fill:#000000"
       id="path24" />
  </g>
  <text
     id="text32"
     y="33.297337"
     x="18.375"
     style="font-size:10px;font-style:normal;font-weight:normal;fill:#ffff00;fill-opacity:1;stroke:none;font-family:Bitstream Vera Sans" />
  <g
     inkscape:groupmode="layer"
     id="layer2"
     inkscape:label="bg"
     style="display:none">
    <rect
       style="fill:#000000;fill-opacity:1;stroke:#000000;stroke-width:1;stroke-miterlimit:4;stroke-opacity:1;stroke-dasharray:none"
       id="rect3102"
       width="61.468056"
       height="61.635544"
       x="1.0886712"
       y="1.3595306" />
  </g>
  <g
     inkscape:groupmode="layer"
     id="layer4"
     inkscape:label="border">
    <rect
       style="fill:none;fill-opacity:1;stroke:none;stroke-width:1.02489232999999990;stroke-miterlimit:4;stroke-opacity:1;stroke-dasharray:none"
       id="rect3120"
       width="57.590939"
       height="57.590939"
       x="3.1109722"
       y="-5.3275385" />
  </g>
  <g
     inkscape:groupmode="layer"
     id="layer1"
     inkscape:label="main"
     style="display:inline">
    <path
       inkscape:connector-curvature="0"
       id="path28"
       style="fill:#000000"
       d="m 4.9426067,40.016075 0,-15.0125 7.0937503,-13.999117 46.96875,-0.004 0,29.03125 -54.0625003,-0.01563 z M 20.015625,12.00045 l -7.37922,0 C 10.409425,16.364419 8.3043591,20.690873 6.0051067,25 l 14.0000003,4.5e-4 0.01052,-13 z M 33,11.999814 21.020732,12.00045 21.020171,25.015625 33.015625,25 33,11.999814 z m 12.005107,-0.01499 -10.984375,0 L 34.005107,25 45.015625,25 45.005107,11.984825 z m 13.010518,0.01563 -12.026143,-0.01563 0,13.015175 12.015625,0.01563 0.01052,-13.015175 z" />
    <path
       inkscape:connector-curvature="0"
       id="path34"
       style="fill:#000000;display:inline"
       d="m 20.991156,40 a 4.9599071,5.0383527 0 0 1 -9.919814,0 4.9599071,5.0383527 0 1 1 9.919814,0 z" />
    <path
       inkscape:connector-curvature="0"
       id="path36"
       style="fill:#000000;display:inline"
       d="m 52.991156,40.03125 a 4.9599071,5.0383527 0 0 1 -9.919814,0 4.9599071,5.0383527 0 1 1 9.919814,0 z" />
    <path
       inkscape:connector-curvature="0"
       id="path40"
       style="fill:#ffffff;display:inline"
       d="m 16.015625,34.03125 c -3.298793,0 -6,2.684081 -6,6 0,3.315921 2.701208,6.000001 6,6 3.298793,0 5.96875,-2.684078 5.96875,-6 0,-3.315921 -2.669957,-6.000001 -5.96875,-6 z m -0.5,0.96875 c 0.16667,-0.01721 0.328883,0 0.5,0 2.73787,-10e-7 4.96875,2.250079 4.96875,5.03125 0,2.781169 -2.230881,5.03125 -4.96875,5.03125 -2.737868,2e-6 -4.9375,-2.250079 -4.9375,-5.03125 0,-2.607349 1.937445,-4.773084 4.4375,-5.03125 z" />
    <path
       inkscape:connector-curvature="0"
       id="path42"
       style="fill:#ffffff;display:inline"
       d="m 48.015625,34.0625 c -3.298793,0 -6,2.684081 -6,6 0,3.315921 2.701208,6.000001 6,6 3.298793,0 5.96875,-2.684078 5.96875,-6 0,-3.315921 -2.669957,-6.000001 -5.96875,-6 z m -0.5,0.96875 c 0.16667,-0.01721 0.328883,0 0.5,0 2.73787,-10e-7 4.96875,2.250079 4.96875,5.03125 0,2.781169 -2.230881,5.03125 -4.96875,5.03125 -2.737868,2e-6 -4.9375,-2.250079 -4.9375,-5.03125 0,-2.607349 1.937445,-4.773084 4.4375,-5.03125 z" />
    <g
       id="g46">
      <path
         inkscape:connector-curvature="0"
         id="path48"
         style="fill:none;stroke:#ffffff;stroke-width:1px;stroke-linecap:butt;stroke-linejoin:miter;stroke-opacity:1"
         d="m 10.53125,40.53125 c -5.96875,0 -6,0 -6,0 l 0,-15.84375 7.1875,-14.1875 47.78125,0 0.03125,30.03125 -6,0 0,0" />
      <path
         inkscape:connector-curvature="0"
         id="path50"
         style="fill:none;stroke:#ffffff;stroke-width:1px;stroke-linecap:butt;stroke-linejoin:miter;stroke-opacity:1"
         d="M 42.46875,40.53125 C 21.46875,40.53125 21.5,40.5 21.5,40.5" />
    </g>
    <path
       inkscape:connector-curvature="0"
       id="path52"
       style="fill:#ffffff;stroke:#ffffff;stroke-width:0.0625;stroke-opacity:1"
       d="m 6.5750516,23.979302 c 0.967985,-1.854033 2.9150569,-5.67216 4.4939744,-8.8125 l 1.579061,-3.140625 3.680691,0 3.680695,0 0,6.46875 0,6.46875 -6.974182,0 -6.9741825,0 0.5139431,-0.984375 z" />
    <path
       inkscape:connector-curvature="0"
       id="path54"
       style="fill:#ffffff;stroke:#ffffff;stroke-width:0.0625;stroke-opacity:1"
       d="m 21.071973,18.494927 0,-6.46875 5.927284,0 5.927285,0 0.04147,3.197781 c 0.02281,1.758777 0.04147,4.669714 0.04147,6.468748 l 0,3.270971 -5.96875,0 -5.96875,0 0,-6.46875 z" />
    <path
       inkscape:connector-curvature="0"
       id="path56"
       style="fill:#ffffff;stroke:#ffffff;stroke-width:0.0625;stroke-opacity:1"
       d="m 34.009473,22.911496 c 0,-1.128702 0.01868,-4.039639 0.04152,-6.468751 l 0.04152,-4.416568 5.458477,0 5.458481,0 0,6.46875 0,6.46875 -5.5,0 -5.5,0 0,-2.052181 z" />
    <path
       inkscape:connector-curvature="0"
       id="path58"
       style="fill:#ffffff;stroke:#ffffff;stroke-width:0.0625;stroke-opacity:1"
       d="m 46.009473,18.494927 0,-6.46875 6,0 6,0 0,6.46875 0,6.46875 -6,0 -6,0 0,-6.46875 z" />
  </g>
  <g
     inkscape:groupmode="layer"
     id="layer3"
     inkscape:label="text">
    <text
       xml:space="preserve"
       style="font-size:14px;font-style:normal;font-weight:bold;line-height:125%;letter-spacing:0px;word-spacing:0px;fill:#ffffff;fill-opacity:1;stroke:none;font-family:Sans;-inkscape-font-specification:Sans Bold"
       x="22.359632"
       y="37.369423"
       id="text3115"
       sodipodi:linespacing="125%"><tspan
         sodipodi:role="line"
         id="tspan3117"
         x="22.359632"
         y="37.369423">TN</tspan></text>
  </g>
</svg>
